<?xml version="1.0" encoding="utf-8"?>
<svg width="1920" height="523" viewBox="0 0 1920 523" fill="none" xmlns="http://www.w3.org/2000/svg">
  <path d="M 106.95 173.296 L -8.834 285.477 C -16.61 293.011 -21 303.376 -21 314.204 L -21 432.84 C -21 454.931 -46.243 472.84 -24.152 472.84 L 88.673 472.84 L 425.5 472.84 L 724.28 472.84 L 954.221 472.84 C 958.757 472.84 963.26 473.611 967.537 475.121 L 1096.69 520.718 C 1100.97 522.228 1105.47 523 1110 523 L 1296.33 523 C 1300.46 523 1304.56 522.361 1308.49 521.106 L 1553.017 473.94 C 1556.957 472.685 1567.531 472.046 1571.661 472.046 L 1819.158 472.046 L 1936.582 472.047 C 1950.652 472.047 1946.42 434.448 1953.64 422.373 L 1987.33 366.064 C 1991.04 359.858 1993 352.761 1993 345.53 L 1958.479 328.454 C 1958.479 306.363 1977.248 279.823 1955.158 279.823 L 1917.324 262.563 C 1908.754 262.563 1878.828 199.398 1871.938 194.299 L 1780.28 68.597 C 1772.78 63.041 1763.57 60.286 1754.24 60.808 L 1572.48 70.985 C 1562.4 71.55 1552.91 75.905 1545.9 83.176 L 1431.51 201.968 C 1423.97 209.798 1413.57 214.222 1402.7 214.222 L 1315.22 214.222 C 1306.98 214.222 1298.94 211.677 1292.2 206.936 L 1198.25 140.838 C 1191.52 136.096 1183.48 133.552 1175.24 133.552 L 975.378 133.552 C 966.129 133.552 957.166 136.757 950.014 142.622 L 810.117 257.349 C 802.966 263.214 794.002 266.42 784.753 266.42 L 605.477 266.42 C 596.84 266.42 588.436 263.625 581.52 258.452 L 463.243 169.991 C 456.327 164.819 447.922 162.024 439.286 162.024 L 134.784 162.024 C 124.394 162.024 114.412 166.066 106.95 173.296 Z" fill="#2A808D" fill-opacity="0.3"/>
  <path d="M 106.95 143.296 L -15.307 212.325 C -23.083 219.859 -21 273.376 -21 284.204 L -21 402.84 C -21 424.931 -35.455 442.84 -13.364 442.84 L 88.673 442.84 L 425.5 442.84 L 724.28 442.84 L 954.221 442.84 C 958.757 442.84 963.26 443.611 967.537 445.121 L 1096.69 490.718 C 1100.97 492.228 1105.47 493 1110 493 L 1296.33 493 C 1300.46 493 1304.56 492.361 1308.49 491.106 L 1550.86 441.782 C 1554.8 440.527 1580.476 442.047 1584.606 442.047 L 1814.843 444.203 L 1930.715 442.046 C 1944.535 442.046 1944.44 404.7 1951.74 392.957 L 1986.97 336.278 C 1990.91 329.94 1993 322.625 1993 315.161 L 1986.527 274.72 C 1986.527 252.629 1992.351 239.035 1970.261 239.035 L 1945.373 221.774 C 1936.803 221.774 1898.246 173.714 1891.356 168.615 L 1780.28 38.597 C 1772.78 33.041 1763.57 30.286 1754.24 30.808 L 1572.48 40.985 C 1562.4 41.55 1552.91 45.905 1545.9 53.176 L 1431.51 171.968 C 1423.97 179.798 1413.57 184.222 1402.7 184.222 L 1315.22 184.222 C 1306.98 184.222 1298.94 181.677 1292.2 176.936 L 1198.25 110.838 C 1191.52 106.096 1183.48 103.552 1175.24 103.552 L 975.378 103.552 C 966.129 103.552 957.166 106.757 950.014 112.622 L 810.117 227.349 C 802.966 233.214 794.002 236.42 784.753 236.42 L 605.477 236.42 C 596.84 236.42 588.436 233.625 581.52 228.452 L 463.243 139.991 C 456.327 134.819 447.922 132.024 439.286 132.024 L 134.784 132.024 C 124.394 132.024 114.412 136.066 106.95 143.296 Z" fill="#2A8086"/>
  <path d="M 107.177 104.983 L -29.327 169.528 C -37.76 177.114 -21 226.761 -21 238.104 L -21 343.292 C -21 365.384 -3.091 383.292 19 383.292 L 80.8 383.292 C 85.999 383.292 91.148 382.279 95.959 380.308 L 285.778 302.569 C 290.589 300.599 295.739 299.585 300.938 299.585 L 601.086 299.585 C 609.856 299.585 618.383 302.467 625.354 307.788 L 713.532 375.089 C 720.503 380.41 729.03 383.292 737.8 383.292 L 950.167 383.292 C 957.308 383.292 964.319 385.204 970.472 388.829 L 1093.75 461.463 C 1099.91 465.088 1106.92 467 1114.06 467 L 1294.61 467 C 1299.86 467 1305.05 465.968 1309.9 463.962 L 1419.71 418.538 L 1551.9 384.552 C 1555.15 383.716 1558.5 383.292 1561.86 383.292 L 1756.25 383.292 C 1764.34 383.292 1772.24 380.839 1778.9 376.256 L 1915.46 282.39 C 1922.13 277.807 1930.03 275.354 1938.12 275.354 L 1953 275.354 C 1975.09 275.354 1993 257.445 1993 235.354 L 1964.011 205.032 C 1955.921 205.032 1907.026 135.691 1900.356 131.108 L 1779.85 7.687 C 1772.6 2.702 1763.91 0.248 1755.12 0.704 L 1571.73 10.238 C 1562.1 10.739 1552.98 14.698 1546.04 21.388 L 1431.33 131.98 C 1423.87 139.168 1413.92 143.184 1403.57 143.184 L 1314.46 143.184 C 1306.69 143.184 1299.09 140.921 1292.59 136.672 L 1197.87 74.799 C 1191.36 70.55 1183.76 68.288 1175.99 68.288 L 974.569 68.288 C 965.815 68.288 957.302 71.16 950.337 76.463 L 809.794 183.471 C 802.829 188.774 794.316 191.646 785.562 191.646 L 604.699 191.646 C 596.544 191.646 588.583 189.153 581.885 184.502 L 462.878 101.866 C 456.179 97.215 448.219 94.722 440.063 94.722 L 133.928 94.722 C 124.05 94.722 114.521 98.377 107.177 104.983 Z" fill="#2A808D" fill-opacity="0.3"/>
</svg>