<?xml version="1.0" encoding="utf-8"?>
<svg width="1898" height="564" viewBox="0 0 1898 564" fill="none" xmlns="http://www.w3.org/2000/svg">
  <path d="M 1938.601 250.093 L 1990.33 316.679 C 2004.73 323.118 2014 337.42 2014 353.194 L 2014 462.84 C 2014 484.931 2004.242 465.686 1982.152 465.686 L 1804.628 462.078 C 1798.128 462.078 1779.49 473.853 1773.74 476.886 L 1675.26 559.383 C 1669.51 562.415 1663.1 564 1656.6 564 L 1361.64 564 C 1352.8 564 1344.2 561.071 1337.2 555.671 L 1279.52 511.169 C 1272.52 505.769 1263.93 502.84 1255.08 502.84 L 1040.05 502.84 C 1034.69 502.84 1029.38 503.916 1024.45 506.006 L 897.326 559.834 C 892.392 561.923 887.088 563 881.729 563 L 705.36 563 C 695.739 563 686.44 559.532 679.169 553.233 L 632.274 512.607 C 625.003 506.307 615.704 502.84 606.083 502.84 L 237.527 502.84 C 228.957 502.84 220.614 500.087 213.726 494.988 L 73.829 467.969 C 66.941 462.87 -6.621 466.699 -13.153 462.623 L -19.104 390.656 C -41.195 390.656 0 368.672 0 346.58 L -38.723 242.184 C -38.723 220.092 -39.157 226.641 -17.066 226.641 L 44.024 226.641 C 56.161 226.641 71.717 200.749 79.309 191.28 L 192.991 49.48 C 200.582 40.01 212.063 34.5 224.199 34.5 L 640.95 34.5 C 661.437 34.5 678.612 49.979 680.735 70.356 L 686.708 127.696 C 688.831 148.073 706.006 163.552 726.493 163.552 L 1065.38 163.552 C 1072.97 163.552 1080.4 161.392 1086.81 157.324 L 1258.91 48.092 C 1265.32 44.024 1272.75 41.863 1280.34 41.863 L 1445.5 41.863 L 1757.74 41.863 C 1773.93 41.863 1788.53 51.632 1794.71 66.604 L 1909.839 244.703 C 1913.739 254.17 1929.251 245.912 1938.601 250.093 Z" fill="#2A8086"/>
  <path d="M 1925.03 244.103 L 2013.48 284.618 C 2027.8 291.092 2037 305.351 2037 321.067 L 2037 432.32 C 2037 454.411 2019.09 472.32 1997 472.32 L 1824.102 449.901 C 1817.542 449.901 1800.892 459.667 1795.102 462.752 L 1699.01 529.302 C 1693.22 532.387 1686.76 534 1680.2 534 L 1398.53 534 C 1390.68 534 1383.01 531.694 1376.47 527.367 L 1303.23 478.952 C 1296.69 474.626 1289.02 472.32 1281.17 472.32 L 1065.07 472.32 C 1059.67 472.32 1054.31 473.417 1049.34 475.545 L 922.619 529.766 C 917.646 531.894 912.293 532.991 906.883 532.991 L 731.107 532.991 C 721.414 532.991 712.052 529.472 704.759 523.088 L 658.079 482.223 C 650.786 475.839 641.424 472.32 631.732 472.32 L 264.193 472.32 C 255.554 472.32 247.148 469.523 240.231 464.349 L 104.821 363.044 C 97.904 357.869 89.498 355.072 80.859 355.072 L 67 355.072 C 44.909 355.072 27 337.164 27 315.072 L -25.99 160.229 C -25.99 160.229 -34.575 185.447 -12.484 185.447 L 58.536 185.447 C 70.744 185.447 98.589 167.644 106.177 158.08 L 219.582 15.139 C 227.17 5.575 238.709 0 250.918 0 L 666.567 0 C 687.07 0 704.254 15.503 706.356 35.898 L 712.371 94.25 C 714.474 114.646 731.657 130.149 752.16 130.149 L 1045.44 130.149 C 1052.91 130.149 1060.24 128.053 1066.59 124.1 L 1243.35 13.985 C 1249.7 10.031 1257.02 7.936 1264.5 7.936 L 1469.63 7.936 L 1781.17 7.936 C 1797.41 7.936 1812.03 17.754 1818.19 32.783 L 1913.745 216.059 C 1917.615 225.522 1915.71 239.891 1925.03 244.103 Z" fill="#2A808D" fill-opacity="0.3"/>
  <path d="M 1803.073 152.986 L 1794.783 152.986 L 1798.343 187.718 L 1799.123 215.347 L 1808.603 215.347 L 1804.653 187.718 L 1803.073 152.986 Z" fill="#216E7A"/>
  <path d="M 1807.453 220.083 L 1800.793 220.083 C 1800.323 220.083 1799.963 220.487 1800.003 220.953 L 1803.473 254.816 L 1804.233 281.677 C 1804.253 282.104 1804.603 282.444 1805.023 282.444 L 1812.823 282.444 C 1813.303 282.444 1813.673 282.018 1813.603 281.543 L 1809.783 254.816 L 1808.243 220.836 C 1808.223 220.415 1807.873 220.083 1807.453 220.083 Z" fill="#216E7A"/>
  <path d="M 1823.583 243.764 L 1815.983 243.764 C 1815.523 243.764 1815.153 244.163 1815.203 244.625 L 1816.833 262.593 L 1816.833 278.803 C 1816.833 279.272 1817.243 279.638 1817.713 279.588 L 1825.803 278.723 C 1826.253 278.675 1826.573 278.259 1826.503 277.812 L 1824.003 262.386 C 1823.993 262.338 1823.993 262.291 1823.993 262.243 L 1824.373 244.57 C 1824.383 244.128 1824.023 243.764 1823.583 243.764 Z" fill="#216E7A"/>
  <path d="M 1812.583 286.004 L 1805.923 286.004 C 1805.453 286.004 1805.093 286.383 1805.133 286.821 L 1808.593 318.531 C 1808.603 318.572 1808.603 318.613 1808.593 318.654 L 1807.863 329.284 C 1807.833 329.711 1808.193 330.072 1808.653 330.072 L 1816.323 330.072 C 1816.823 330.072 1817.193 329.648 1817.103 329.191 L 1814.923 318.645 C 1814.923 318.61 1814.913 318.574 1814.913 318.538 L 1813.373 286.712 C 1813.353 286.316 1813.003 286.004 1812.583 286.004 Z" fill="#216E7A" style=""/>
  <path d="M 1790.203 301.695 C 1794.803 298.956 1801.383 289.78 1801.863 282.837 C 1801.893 282.402 1801.543 282.13 1801.183 282.369 C 1798.313 284.248 1789.463 294.022 1789.223 301.117 C 1789.213 301.647 1789.753 301.966 1790.203 301.695 Z" fill="#216E7A"/>
  <path d="M 1787.143 275.481 C 1788.833 280.379 1795.373 281.191 1799.923 280.991 C 1800.213 280.978 1800.503 280.792 1800.483 280.498 C 1800.373 278.185 1792.813 274.987 1787.853 274.591 C 1787.353 274.551 1786.983 275.01 1787.143 275.481 Z" fill="#216E7A"/>
  <path d="M 1812.783 233.893 C 1818.513 232.663 1828.243 225.588 1830.543 218.937 C 1830.683 218.525 1830.423 218.155 1830.003 218.264 C 1826.483 219.172 1814.023 226.196 1812.013 233.073 C 1811.873 233.564 1812.283 234.001 1812.783 233.893 Z" fill="#216E7A"/>
  <path d="M 1876.283 154.777 C 1876.683 161.256 1872.083 173.607 1865.823 177.592 C 1865.453 177.826 1865.023 177.661 1865.013 177.226 C 1864.903 173.33 1868.693 157.898 1875.303 154.228 C 1875.733 153.985 1876.243 154.278 1876.283 154.777 Z" fill="#216E7A"/>
  <path d="M 1840.773 151.882 L 1832.503 151.407 L 1834.053 186.286 L 1833.263 213.914 L 1842.713 214.458 L 1840.363 186.648 L 1840.773 151.882 Z" fill="#216E7A"/>
  <path d="M 1865.003 129.854 L 1856.823 128.515 L 1854.713 163.365 L 1851.033 190.758 L 1860.373 192.289 L 1860.943 164.386 L 1865.003 129.854 Z" fill="#216E7A"/>
  <path d="M 1874.423 203.134 L 1863.733 201.138 L 1860.853 235.958 L 1855.943 263.165 L 1868.153 265.447 L 1868.993 237.479 L 1874.423 203.134 Z" fill="#216E7A"/>
  <path d="M 1841.303 219.12 L 1834.653 218.738 C 1834.183 218.711 1833.793 219.094 1833.813 219.561 L 1835.333 253.567 L 1834.553 280.429 C 1834.543 280.856 1834.873 281.215 1835.303 281.239 L 1843.083 281.686 C 1843.563 281.714 1843.953 281.31 1843.913 280.832 L 1841.633 253.929 L 1842.043 219.918 C 1842.043 219.496 1841.723 219.144 1841.303 219.12 Z" fill="#216E7A"/>
  <path d="M 1858.473 196.777 L 1851.903 195.701 C 1851.443 195.625 1851.013 195.965 1850.993 196.432 L 1848.933 230.41 L 1845.353 257.042 C 1845.293 257.466 1845.583 257.858 1846.003 257.927 L 1853.703 259.186 C 1854.173 259.264 1854.603 258.904 1854.613 258.423 L 1855.163 231.43 L 1859.133 197.648 C 1859.183 197.229 1858.893 196.845 1858.473 196.777 Z" fill="#216E7A"/>
  <path d="M 1865.893 269.742 L 1856.823 268.151 C 1856.353 268.069 1855.903 268.392 1855.863 268.836 L 1853.063 300.665 L 1848.203 327.57 C 1848.133 327.985 1848.443 328.365 1848.893 328.404 L 1859.063 329.26 C 1859.523 329.299 1859.923 328.966 1859.943 328.538 L 1861.203 302.093 L 1866.513 270.557 C 1866.573 270.171 1866.303 269.813 1865.893 269.742 Z" fill="#216E7A" style=""/>
  <path d="M 1842.583 285.274 L 1835.923 284.915 C 1835.453 284.89 1835.073 285.248 1835.093 285.686 L 1836.223 310.391 C 1836.223 310.427 1836.223 310.464 1836.223 310.498 L 1834.333 327.851 C 1834.293 328.259 1834.613 328.623 1835.043 328.664 L 1845.153 329.593 C 1845.663 329.639 1846.083 329.231 1846.013 328.759 L 1843.403 309.946 L 1843.333 286.011 C 1843.323 285.62 1843.003 285.296 1842.583 285.274 Z" fill="#216E7A" style=""/>
  <path d="M 1820.703 196.609 C 1818.623 202.793 1825.083 209.598 1830.073 213.535 C 1830.303 213.713 1830.623 213.765 1830.813 213.549 C 1832.673 211.434 1826.873 201.175 1821.843 196.348 C 1821.473 195.99 1820.873 196.119 1820.703 196.609 Z" fill="#216E7A"/>
  <path d="M 1825.443 281.9 L 1817.843 281.9 C 1817.383 281.9 1817.023 282.275 1817.063 282.708 L 1818.693 299.566 L 1818.693 328.878 C 1818.693 329.318 1819.103 329.661 1819.573 329.614 L 1827.723 328.797 C 1828.153 328.754 1828.463 328.399 1828.433 327.998 L 1825.853 299.305 L 1826.233 282.657 C 1826.243 282.242 1825.883 281.9 1825.443 281.9 Z" fill="#216E7A" style=""/>
  <circle cx="131.066" cy="234.214" r="65.0658" fill="#216E7A"/>
  <circle cx="131.066" cy="189.066" r="65.0658" fill="#216E7A"/>
  <rect x="120.474" y="235.974" width="15.1316" height="118.026" rx="7.56579" fill="#1D6874"/>
</svg>