<?xml version="1.0" encoding="utf-8"?>
<svg width="1920" height="803" viewBox="0 0 1920 803" fill="none" xmlns="http://www.w3.org/2000/svg">
  <g clip-path="url(#clip0)">
    <path d="M -1.5 -174 L -21.5 497 L -29.499 632.482 C -30.856 655.46 -33.418 705.285 -10.4 705.285 L 108.231 705.285 C 113.79 705.285 136.914 697.716 142.001 695.472 L 321.351 588.082 C 326.437 585.838 331.936 584.679 337.495 584.679 L 636.275 584.679 C 645.541 584.679 654.519 587.896 661.677 593.78 L 753.135 668.966 C 757.836 672.831 763.357 675.572 769.277 676.981 L 1134.58 763.913 C 1137.62 764.635 1140.73 765 1143.84 765 L 1338.56 765 L 1577.59 765 C 1582.81 765 1587.98 763.978 1592.81 761.992 L 1787.35 681.966 C 1798.32 677.45 1810.74 678.042 1821.23 683.582 L 1913.897 704.133 C 1933.987 714.738 1952.457 700.087 1962.247 679.584 L 2025.1 566.756 C 2027.67 561.374 2029 555.484 2029 549.519 L 2029 413.191 C 2029 393.899 2013.36 378.259 1994.07 378.259 C 1975.81 378.259 1960.63 364.193 1959.24 345.985 L 1920 -168.5 L -1.5 -174 Z" fill="#2A8086"/>
    <path opacity="0.3" d="M -1.5 -144 L -21.5 527 L -29.499 662.482 C -30.856 685.46 -38.226 732.08 -15.208 732.08 L 114.641 732.08 C 120.2 732.08 130.505 727.716 135.592 725.472 L 321.351 618.082 C 326.437 615.838 331.936 614.679 337.495 614.679 L 636.275 614.679 C 645.541 614.679 654.519 617.896 661.677 623.78 L 753.135 698.966 C 757.836 702.831 763.357 705.572 769.277 706.981 L 1134.58 793.913 C 1137.62 794.635 1140.73 795 1143.84 795 L 1338.56 795 L 1577.59 795 C 1582.81 795 1587.98 793.978 1592.81 791.992 L 1786.7 712.229 C 1798.05 707.563 1810.9 708.359 1821.58 714.388 L 1935.725 736.407 C 1956.975 748.4 1966.289 732.332 1975.079 709.572 L 2026.31 595.534 C 2028.09 590.938 2029 586.053 2029 581.126 L 2029 443.191 C 2029 423.899 2013.36 408.259 1994.07 408.259 C 1975.81 408.259 1960.63 394.193 1959.24 375.985 L 1920 -138.5 L -1.5 -144 Z" fill="#2A8086"/>
  </g>
  <defs>
    <clipPath id="clip0">
      <rect width="2061" height="803" fill="white" transform="translate(-32)"/>
    </clipPath>
  </defs>
</svg>