<svg width="320" height="905" viewBox="0 0 320 905" fill="none" xmlns="http://www.w3.org/2000/svg">
<path d="M164.889 21H-15.3174C-38.3381 21 -57 39.662 -57 62.6826V788.631C-57 805.685 -46.611 821.019 -30.7724 827.342L83.6628 873.029C88.5791 874.992 93.8242 876 99.1178 876H285.149C294.123 876 302.858 873.104 310.054 867.742L541.639 695.182C555.172 685.098 561.289 667.85 557.133 651.493L429.075 147.51C424.379 129.031 407.743 116.093 388.676 116.093H313.529C304.103 116.093 294.955 112.898 287.578 107.029L190.84 30.0641C183.464 24.1952 174.316 21 164.889 21Z" fill="#2A8086"/>
<path opacity="0.3" d="M164.247 1H-15.3174C-38.3381 1 -57 19.662 -57 42.6826V814.834C-57 831.591 -46.9653 846.719 -31.5273 853.235L83.3319 901.719C88.4618 903.884 93.9735 905 99.5417 905H284.524C293.882 905 302.968 901.851 310.319 896.06L543.028 712.725C555.811 702.655 561.564 686.066 557.761 670.243L428.769 133.485C424.266 114.75 407.509 101.543 388.24 101.543H314.171C304.354 101.543 294.851 98.0774 287.339 91.7577L191.08 10.7849C183.567 4.46516 174.065 1 164.247 1Z" fill="#2A8086"/>
<path opacity="0.3" d="M166.556 0.645752H-14.9326C-37.9533 0.645752 -56.6152 19.3077 -56.6152 42.3283V584.718C-56.6152 602.389 -45.4724 618.14 -28.8092 624.023L84.7035 664.098C89.1608 665.672 93.8532 666.476 98.5801 666.476H292.74C297.042 666.476 301.318 665.81 305.416 664.502L525.604 594.213C547.083 587.356 559.216 564.663 552.99 542.993L429.98 114.881C424.847 97.016 408.506 84.7089 389.918 84.7089H312.426C303.84 84.7089 295.463 82.0575 288.441 77.1169L190.541 8.23785C183.519 3.29725 175.142 0.645752 166.556 0.645752Z" fill="#2A8086"/>
</svg>
