<svg width="349" height="154" viewBox="0 0 349 154" fill="none" xmlns="http://www.w3.org/2000/svg">
<path d="M1 95.5L70 0.999998L71 0.750001L79 3.24999V91.25H102.25L103.75 93.25L101.75 107L79 106.25C79.1667 114.75 79.4167 123.25 79.75 131.75C80.25 140.417 80.5833 146 80.75 148.5L79.5 150.25L61.75 153.25L60.25 151C60.4167 148.167 60.6667 142.417 61 133.75C61.3333 125.25 61.5833 115.917 61.75 105.75C36.0833 105.083 15.5 104.75 4.74975e-08 104.75L1 95.5ZM61.75 35.25H59.5L19.25 91.25H61.75V35.25ZM174.066 130C163.4 130 153.983 127.417 145.816 122.25C137.816 117.083 131.566 109.833 127.066 100.5C122.566 91.1667 120.316 80.4167 120.316 68.25C120.316 55.4167 122.9 43.9167 128.066 33.75C133.4 23.4167 140.65 15.3333 149.816 9.49999C159.15 3.66667 169.566 0.750001 181.066 0.750001C191.4 0.750001 200.65 3.33333 208.816 8.49999C216.983 13.5 223.316 20.5833 227.816 29.75C232.316 38.9167 234.566 49.4167 234.566 61.25C234.566 74.25 231.9 86 226.566 96.5C221.4 107 214.233 115.25 205.066 121.25C195.9 127.083 185.566 130 174.066 130ZM178.566 111C191.066 111 201.15 107.083 208.816 99.25C216.65 91.25 220.566 80.9167 220.566 68.25C220.566 59.0833 218.65 50.9167 214.816 43.75C210.983 36.5833 205.65 31 198.816 27C192.15 23 184.483 21 175.816 21C163.316 21 153.233 25 145.566 33C138.066 40.8333 134.316 51.3333 134.316 64.5C134.316 73.5 136.15 81.5833 139.816 88.75C143.65 95.75 148.9 101.25 155.566 105.25C162.233 109.083 169.9 111 178.566 111ZM246.117 95.5L315.117 0.999998L316.117 0.750001L324.117 3.24999V91.25H347.367L348.867 93.25L346.867 107L324.117 106.25C324.284 114.75 324.534 123.25 324.867 131.75C325.367 140.417 325.701 146 325.867 148.5L324.617 150.25L306.867 153.25L305.367 151C305.534 148.167 305.784 142.417 306.117 133.75C306.451 125.25 306.701 115.917 306.867 105.75C281.201 105.083 260.617 104.75 245.117 104.75L246.117 95.5ZM306.867 35.25H304.617L264.367 91.25H306.867V35.25Z" fill="#0D444D"/>
</svg>
